<?xml version="1.0" encoding="UTF-8" standalone="no"?>
<!DOCTYPE svg PUBLIC "-//W3C//DTD SVG 1.1//EN" "http://www.w3.org/Graphics/SVG/1.1/DTD/svg11.dtd">
<!-- Created with Vectornator (http://vectornator.io/) -->
<svg height="100%" stroke-miterlimit="10" style="fill-rule:nonzero;clip-rule:evenodd;stroke-linecap:round;stroke-linejoin:round;" version="1.1" viewBox="0 0 373.406 373.406" width="100%" xml:space="preserve" xmlns="http://www.w3.org/2000/svg" xmlns:xlink="http://www.w3.org/1999/xlink">
<defs/>
<clipPath id="ArtboardFrame">
<rect height="373.406" width="373.406" x="0" y="0"/>
</clipPath>
<g clip-path="url(#ArtboardFrame)" id="Untitled">
<g opacity="1">
<path d="M170.055 310.142C155.763 310.142 144.137 321.769 144.137 336.06C144.137 350.351 155.764 361.978 170.055 361.978C184.346 361.978 195.972 350.351 195.972 336.06C195.972 321.769 184.346 310.142 170.055 310.142ZM170.055 341.978C166.791 341.978 164.137 339.324 164.137 336.06C164.137 332.796 166.792 330.142 170.055 330.142C173.318 330.142 175.973 332.796 175.973 336.06C175.973 339.324 173.318 341.978 170.055 341.978Z" fill="#515150" fill-opacity="0.9" fill-rule="nonzero" opacity="1" stroke="none"/>
<path d="M292.265 310.142C277.974 310.142 266.347 321.769 266.347 336.06C266.347 350.351 277.975 361.978 292.265 361.978C306.558 361.978 318.185 350.351 318.185 336.06C318.185 321.769 306.558 310.142 292.265 310.142ZM292.265 341.978C289.002 341.978 286.347 339.324 286.347 336.06C286.347 332.796 289.002 330.142 292.265 330.142C295.53 330.142 298.185 332.796 298.185 336.06C298.185 339.324 295.529 341.978 292.265 341.978Z" fill="#515150" fill-opacity="0.9" fill-rule="nonzero" opacity="1" stroke="none"/>
<path d="M332.66 281.64L129.66 281.64C124.137 281.64 119.66 286.117 119.66 291.64C119.66 297.163 124.137 301.64 129.66 301.64L332.66 301.64C338.182 301.64 342.66 297.163 342.66 291.64C342.66 286.117 338.183 281.64 332.66 281.64Z" fill="#515150" fill-opacity="0.9" fill-rule="nonzero" opacity="1" stroke="none"/>
<path d="M368.979 105.755C364.814 100.688 352.49 97.996 352.49 97.996C351.953 97.878 351.063 97.782 350.512 97.783L102.512 97.86C101.962 97.86 101.068 97.931 100.524 98.017L98.591 96.922C98.13 96.623 97.663 95.937 97.555 95.398L85.442 35.144C85.334 34.604 82.427 11.429 56.485 11.429L13.333 11.429L10 11.429C4.5 11.429 0 15.929 0 21.429C0 26.929 4.5 31.429 10 31.429L10.042 31.429L13.334 31.429L56.487 31.429C64.679 31.429 65.728 38.547 65.837 39.086L81.931 119.138C82.039 119.678 82.214 120.56 82.319 121.1C82.319 121.1 100.486 214.919 106.583 246.185C106.688 246.725 108.431 269.949 135.488 269.949L320.514 269.949C347.846 269.949 348.707 249.967 349.42 246.185C355.118 215.945 373.232 125.415 373.232 125.415C373.336 124.875 373.416 123.984 373.405 123.435C373.403 123.434 373.145 110.822 368.979 105.755ZM113.218 168.319C112.668 168.319 112.13 167.878 112.021 167.339L102.463 119.798C102.355 119.259 102.32 118.7 102.387 118.558C102.387 118.558 102.387 118.558 102.47 118.457C102.822 118.029 103.497 117.93 103.497 117.93C104.041 117.85 104.936 117.784 105.486 117.784L138.17 117.784C138.72 117.784 139.259 118.225 139.367 118.764L149.133 167.339C149.241 167.879 148.88 168.319 148.33 168.319C148.33 168.319 113.218 168.319 113.218 168.319ZM164.741 249.948L135.487 249.948C128.096 249.948 126.309 242.855 126.203 242.315L125.314 237.805C125.208 237.265 125.039 236.381 124.94 235.84L116.419 189.302C116.32 188.761 116.689 188.319 117.239 188.319L152.351 188.319C152.901 188.319 153.44 188.759 153.548 189.298L165.544 248.966C165.652 249.507 165.291 249.948 164.741 249.948ZM221.139 248.948C221.139 249.497 220.69 249.948 220.139 249.948L187.141 249.948C186.591 249.948 186.053 249.507 185.944 248.968L173.948 189.3C173.84 188.76 174.201 188.32 174.751 188.32L220.139 188.32C220.69 188.32 221.139 188.77 221.139 189.32C221.139 189.32 221.139 248.948 221.139 248.948ZM221.139 167.319C221.139 167.869 220.69 168.319 220.139 168.319L170.731 168.319C170.181 168.319 169.642 167.878 169.534 167.339L159.768 118.764C159.66 118.225 160.021 117.784 160.571 117.784L220.138 117.784C220.689 117.784 221.138 118.234 221.138 118.784L221.138 167.319L221.139 167.319ZM276.345 248.967C276.238 249.507 275.699 249.946 275.149 249.946L242.14 249.946C241.589 249.946 241.14 249.497 241.14 248.946L241.14 189.317C241.14 188.767 241.589 188.317 242.14 188.317L287.537 188.317C288.088 188.317 288.449 188.758 288.341 189.297L276.345 248.967ZM291.559 168.319L242.138 168.319C241.588 168.319 241.138 167.869 241.138 167.319L241.138 118.783C241.138 118.233 241.588 117.783 242.138 117.783L301.717 117.783C302.268 117.783 302.628 118.224 302.522 118.763L292.755 167.338C292.647 167.877 292.108 168.319 291.559 168.319ZM329.797 242.315C329.692 242.855 328.263 249.948 320.515 249.948L297.548 249.948C296.998 249.948 296.637 249.507 296.744 248.968L308.74 189.3C308.848 188.76 309.386 188.32 309.937 188.32L339.442 188.32C339.992 188.32 340.355 188.761 340.249 189.301C340.249 189.3 332.41 229.062 329.797 242.315ZM353.849 119.567C353.823 120.116 353.712 121.007 353.607 121.546L344.58 167.337C344.475 167.877 343.936 168.318 343.387 168.318L313.959 168.318C313.409 168.318 313.048 167.877 313.156 167.338L322.922 118.763C323.03 118.224 323.569 117.783 324.119 117.783L350.515 117.783C351.066 117.783 351.959 117.849 352.504 117.929C352.504 117.929 353.179 118.029 353.531 118.456C353.881 118.885 353.849 119.567 353.849 119.567Z" fill="#515150" fill-opacity="0.9" fill-rule="nonzero" opacity="1" stroke="none"/>
</g>
</g>
</svg>
